<svg xmlns="http://www.w3.org/2000/svg" viewBox="-15 111.42500000000001 626.4469865722656 276.7231690968182"><rect height="100%" width="100%" x="-15" y="111.42500000000001" fill="rgba(15, 35, 64, 1)"/> <svg version="1.1" xmlns="http://www.w3.org/2000/svg" xmlns:xlink="http://www.w3.org/1999/xlink" x="55" y="181.425" viewBox="229.3984375 329.69921875 1271.203125 1004.6015625" xml:space="preserve" height="136.7231690968182" width="173" preserveAspectRatio="xMinYMin" enable-background="new 0 0 1600 1600" style="overflow: visible;"><radialGradient id="SVGID_1_" cx="809.3405" cy="8.1489" r="1323.8617" gradientUnits="userSpaceOnUse" style=""><stop offset="0" style="stop-color: #00FCD2;"></stop><stop offset="1" style="stop-color: #00C1FC;"></stop></radialGradient><path class="st16" d="M1081.6,523.4l0.1,57.3c0,3.7,4,6.1,7.3,4.2l48.6-27.4c3.8-2.1,6.1-6.1,6.1-10.5l0-23.8    c0-27.6-14.9-53.3-38.8-67.1L902.8,340c-23.9-13.8-53.6-13.7-77.5,0.1L623.6,456.8c-23.9,13.8-38.7,39.5-38.7,67.1l0,22.6    c0,3.2,1.7,6.2,4.5,7.8l51.1,29.5c2.8,1.6,6.4-0.4,6.4-3.7l-0.1-56.3c0-5.5,3-10.6,7.7-13.4l201.7-116.8c2.4-1.4,5.1-2.1,7.8-2.1    c2.7,0,5.3,0.7,7.7,2.1l202,116.3C1078.6,512.8,1081.6,517.9,1081.6,523.4z" style="fill: #4379ff; fill-opacity: 1;"></path><radialGradient id="SVGID_2_" cx="809.3405" cy="8.1489" r="1323.8617" gradientUnits="userSpaceOnUse" style=""><stop offset="0" style="stop-color: #00FCD2;"></stop><stop offset="1" style="stop-color: #00C1FC;"></stop></radialGradient><path id="Layer_1" class="st17" d="M1143.5,906.9c0-27.6-14.9-53.3-38.8-67.1l-69.9-40.3v71.5l39,22.5c4.8,2.8,7.7,7.9,7.8,13.4l0.3,233.1   c0,5.5-3,10.6-7.7,13.4l-201.7,116.8c-2.4,1.4-5.1,2.1-7.8,2.1c-2.7,0-5.3-0.7-7.7-2.1l-202-116.3c-4.8-2.7-7.7-7.9-7.8-13.4   l-0.3-233.1c0-5.5,3-10.6,7.7-13.4l38.9-22.5v-71.6l-70,40.5c-23.9,13.8-38.7,39.5-38.7,67.1l0.3,233.1c0,27.6,14.9,53.3,38.8,67.1   l202,116.3c23.9,13.8,53.6,13.7,77.5-0.1l201.7-116.8c23.9-13.8,38.7-39.5,38.7-67.1L1143.5,906.9z" style="fill: #4fff97; fill-opacity: 1;"></path><radialGradient id="SVGID_3_" cx="809.3405" cy="8.1489" r="1323.8617" gradientUnits="userSpaceOnUse" style=""><stop offset="0" style="stop-color: #00FCD2;"></stop><stop offset="1" style="stop-color: #00C1FC;"></stop></radialGradient><path class="st20" d="M1500.3,749.8c0-27.6-14.9-53.3-38.8-67.1l-202-116.3c-11.9-6.9-25.3-10.3-38.7-10.3    c-13.4,0-26.8,3.5-38.8,10.4L980.3,683.3c-23.9,13.8-38.7,39.5-38.7,67.1l0.3,233.1c0,27.6,14.9,53.3,38.8,67.1l67.6,39V1018    l-36.7-21.1c-4.8-2.8-7.7-7.9-7.8-13.4l-0.3-233.1c0-5.5,3-10.6,7.7-13.4l201.7-116.8c4.8-2.8,10.7-2.8,15.5,0l202,116.3    c4.8,2.8,7.7,7.9,7.8,13.4l0.3,233.1c0,5.5-3,10.6-7.7,13.4l-201.7,116.8c-2.4,1.4-5.1,2.1-7.8,2.1c-2.7,0-5.3-0.7-7.7-2.1    l-36-20.8v71.5l5.1,2.9c23.9,13.8,53.6,13.7,77.5-0.1l201.7-116.8c23.9-13.8,38.7-39.5,38.7-67.1L1500.3,749.8z" style="fill: #9562ff; fill-opacity: 1;"></path><radialGradient id="SVGID_4_" cx="809.3405" cy="8.1489" r="1323.8617" gradientUnits="userSpaceOnUse" style=""><stop offset="0" style="stop-color: #00FCD2;"></stop><stop offset="1" style="stop-color: #00C1FC;"></stop></radialGradient><path class="st21" d="M788.1,750.6c0-27.6-14.9-53.3-38.8-67.1l-202-116.3c-11.9-6.9-25.3-10.3-38.7-10.3    c-13.4,0-26.8,3.5-38.8,10.4L268.1,684.1c-23.9,13.8-38.7,39.5-38.7,67.1l0.3,233.1c0,27.6,14.9,53.3,38.8,67.1l202,116.3    c23.9,13.8,53.6,13.7,77.5-0.1l5.5-3.2h-2.1V1094l-34.4,19.9c-2.4,1.4-5.1,2.1-7.8,2.1c-2.7,0-5.3-0.7-7.7-2.1l-202-116.3    c-4.8-2.8-7.7-7.9-7.8-13.4l-0.3-233.1c0-5.5,3-10.6,7.7-13.4L500.8,621c4.8-2.8,10.7-2.8,15.5,0l202,116.3    c4.8,2.8,7.7,7.9,7.8,13.4l0.3,233.1c0,5.5-3,10.6-7.7,13.4l-39.3,22.7v71.6l70.3-40.7c23.9-13.8,38.7-39.5,38.7-67.1L788.1,750.6    z" style="fill: #80e2ff; fill-opacity: 1;"></path><g id="Layer_2" style=""></g></svg> <svg x="246.867" y="232.49215640258788" viewBox="0.7899999618530273 0.6200000047683716 294.5799865722656 34.56999969482422" height="34.56999969482422" width="294.5799865722656" style="overflow: visible;"><g fill="#ffffff" fill-opacity="1" style=""><path d="M10.15 27.16L10.15 27.16Q8.37 27.16 6.87 26.76Q5.36 26.37 4.18 25.77Q2.99 25.17 2.14 24.54Q1.29 23.90 0.79 23.42L0.79 23.42L3.36 19.27Q3.88 19.72 4.59 20.27Q5.30 20.83 6.18 21.34Q7.07 21.84 8.10 22.17Q9.13 22.51 10.29 22.51L10.29 22.51Q11.38 22.51 12.21 22.16Q13.04 21.82 13.52 21.15Q14.00 20.48 14.00 19.47L14.00 19.47Q14.00 18.55 13.61 17.91Q13.22 17.27 12.47 16.75Q11.72 16.23 10.63 15.72Q9.53 15.22 8.14 14.62L8.14 14.62Q7.10 14.15 6.16 13.55Q5.22 12.96 4.50 12.17Q3.77 11.38 3.34 10.38Q2.91 9.38 2.91 8.14L2.91 8.14Q2.91 6.66 3.50 5.32Q4.09 3.97 5.18 2.91Q6.28 1.86 7.79 1.24Q9.30 0.62 11.16 0.62L11.16 0.62Q12.55 0.62 13.95 0.99Q15.35 1.36 16.55 1.97Q17.76 2.57 18.60 3.29L18.60 3.29L16.51 7.22Q15.84 6.65 15.00 6.19Q14.15 5.73 13.20 5.46Q12.24 5.18 11.27 5.18L11.27 5.18Q10.17 5.18 9.40 5.56Q8.63 5.95 8.22 6.60Q7.81 7.24 7.81 8.03L7.81 8.03Q7.81 8.68 8.08 9.14Q8.35 9.59 8.85 9.93Q9.35 10.26 10.04 10.56Q10.74 10.87 11.58 11.21L11.58 11.21Q13.38 11.97 14.83 12.71Q16.29 13.45 17.33 14.36Q18.37 15.27 18.92 16.48Q19.47 17.69 19.47 19.36L19.47 19.36Q19.47 21.81 18.30 23.56Q17.13 25.31 15.04 26.23Q12.94 27.16 10.15 27.16ZM32.64 26.66L27.61 26.66L27.61 1.09L36.33 1.09Q38.94 1.09 40.87 2.01Q42.80 2.93 43.87 4.66Q44.93 6.39 44.93 8.82L44.93 8.82Q44.93 10.74 44.25 12.28Q43.56 13.83 42.29 14.88Q41.02 15.93 39.21 16.45L39.21 16.45L47.58 26.66L41.21 26.66L33.83 17.02L32.64 17.02L32.64 26.66ZM32.64 5.10L32.64 12.83L34.77 12.83Q36.34 12.83 37.43 12.38Q38.51 11.94 39.09 11.06Q39.67 10.18 39.67 8.96L39.67 8.96Q39.67 7.10 38.39 6.10Q37.12 5.10 34.77 5.10L34.77 5.10L32.64 5.10ZM79.59 26.66L65.36 26.66L65.36 1.09L79.59 1.09L79.59 5.49L70.38 5.49L70.38 11.64L79.22 11.64L79.22 16.04L70.38 16.04L70.38 22.26L79.59 22.26L79.59 26.66ZM92.80 26.66L88.04 26.66L88.04 10.79L92.80 10.79L92.80 12.55Q93.72 11.53 95.09 10.91Q96.46 10.29 98.12 10.29L98.12 10.29Q99.95 10.29 101.33 11.09Q102.72 11.89 103.51 13.31Q104.30 14.72 104.30 16.62L104.30 16.62L104.30 26.66L99.54 26.66L99.54 17.62Q99.54 15.92 98.65 14.97Q97.76 14.01 96.21 14.01L96.21 14.01Q95.16 14.01 94.39 14.44Q93.62 14.86 93.21 15.60Q92.80 16.34 92.80 17.27L92.80 17.27L92.80 26.66ZM120.23 35.19L120.23 35.19Q117.02 35.19 114.84 34.01Q112.65 32.84 111.66 30.57L111.66 30.57L115.53 28.68Q116.18 29.78 117.45 30.43Q118.73 31.08 120.21 31.08L120.21 31.08Q121.56 31.08 122.59 30.54Q123.61 30.01 124.18 29.04Q124.76 28.07 124.76 26.80L124.76 26.80L124.76 24.57Q123.70 25.79 122.26 26.47Q120.82 27.16 119.16 27.16L119.16 27.16Q117.01 27.16 115.23 26.08Q113.46 25.00 112.40 23.09Q111.35 21.19 111.35 18.72L111.35 18.72Q111.35 16.31 112.38 14.41Q113.41 12.51 115.20 11.40Q116.99 10.29 119.28 10.29L119.28 10.29Q120.96 10.29 122.38 10.94Q123.81 11.58 124.76 12.73L124.76 12.73L124.76 10.79L129.51 10.79L129.51 27.09Q129.51 29.43 128.50 31.26Q127.48 33.09 125.42 34.14Q123.36 35.19 120.23 35.19ZM120.59 23.11L120.59 23.11Q121.84 23.11 122.81 22.54Q123.78 21.98 124.32 20.99Q124.86 20.01 124.86 18.75L124.86 18.75Q124.86 17.47 124.31 16.48Q123.76 15.48 122.80 14.91Q121.84 14.34 120.62 14.34L120.62 14.34Q119.39 14.34 118.43 14.91Q117.47 15.48 116.91 16.48Q116.35 17.48 116.35 18.75L116.35 18.75Q116.35 20.01 116.90 20.99Q117.44 21.98 118.40 22.54Q119.36 23.11 120.59 23.11ZM142.85 26.66L138.09 26.66L138.09 10.79L142.85 10.79L142.85 26.66ZM140.48 7.49L140.48 7.49Q139.71 7.49 139.06 7.11Q138.42 6.73 138.03 6.08Q137.64 5.43 137.64 4.65L137.64 4.65Q137.64 3.88 138.03 3.24Q138.42 2.60 139.06 2.22Q139.71 1.84 140.48 1.84L140.48 1.84Q141.26 1.84 141.89 2.22Q142.53 2.60 142.91 3.24Q143.29 3.88 143.29 4.65L143.29 4.65Q143.29 5.43 142.91 6.08Q142.53 6.73 141.89 7.11Q141.26 7.49 140.48 7.49ZM156.22 26.66L151.46 26.66L151.46 10.79L156.22 10.79L156.22 12.55Q157.14 11.53 158.51 10.91Q159.88 10.29 161.54 10.29L161.54 10.29Q163.37 10.29 164.75 11.09Q166.14 11.89 166.93 13.31Q167.72 14.72 167.72 16.62L167.72 16.62L167.72 26.66L162.96 26.66L162.96 17.62Q162.96 15.92 162.07 14.97Q161.18 14.01 159.63 14.01L159.63 14.01Q158.58 14.01 157.81 14.44Q157.04 14.86 156.63 15.60Q156.22 16.34 156.22 17.27L156.22 17.27L156.22 26.66ZM183.63 27.16L183.63 27.16Q181.06 27.16 179.02 26.05Q176.99 24.94 175.79 23.03Q174.60 21.13 174.60 18.72L174.60 18.72Q174.60 16.96 175.27 15.42Q175.95 13.89 177.16 12.73Q178.36 11.58 179.96 10.94Q181.56 10.29 183.42 10.29L183.42 10.29Q185.90 10.29 187.77 11.32Q189.63 12.35 190.68 14.18Q191.73 16.01 191.73 18.45L191.73 18.45Q191.73 18.65 191.72 18.79Q191.71 18.94 191.66 19.34L191.66 19.34L179.50 19.34Q179.50 20.55 180.05 21.45Q180.60 22.35 181.59 22.85Q182.58 23.36 183.90 23.36L183.90 23.36Q185.14 23.36 186.09 22.88Q187.04 22.40 187.93 21.34L187.93 21.34L191.35 23.06Q190.24 24.99 188.19 26.07Q186.15 27.16 183.63 27.16ZM179.67 16.71L179.67 16.71L187.04 16.71Q186.89 15.79 186.39 15.13Q185.88 14.46 185.11 14.11Q184.33 13.75 183.36 13.75L183.36 13.75Q182.32 13.75 181.53 14.11Q180.74 14.46 180.26 15.13Q179.78 15.79 179.67 16.71ZM206.66 27.16L206.66 27.16Q204.09 27.16 202.05 26.05Q200.01 24.94 198.82 23.03Q197.62 21.13 197.62 18.72L197.62 18.72Q197.62 16.96 198.30 15.42Q198.97 13.89 200.18 12.73Q201.39 11.58 202.99 10.94Q204.58 10.29 206.44 10.29L206.44 10.29Q208.92 10.29 210.79 11.32Q212.66 12.35 213.71 14.18Q214.75 16.01 214.75 18.45L214.75 18.45Q214.75 18.65 214.74 18.79Q214.74 18.94 214.69 19.34L214.69 19.34L202.52 19.34Q202.52 20.55 203.07 21.45Q203.62 22.35 204.61 22.85Q205.61 23.36 206.92 23.36L206.92 23.36Q208.16 23.36 209.12 22.88Q210.07 22.40 210.95 21.34L210.95 21.34L214.38 23.06Q213.26 24.99 211.22 26.07Q209.17 27.16 206.66 27.16ZM202.69 16.71L202.69 16.71L210.07 16.71Q209.92 15.79 209.41 15.13Q208.91 14.46 208.13 14.11Q207.36 13.75 206.38 13.75L206.38 13.75Q205.34 13.75 204.55 14.11Q203.76 14.46 203.28 15.13Q202.80 15.79 202.69 16.71ZM226.76 26.66L222.00 26.66L222.00 10.79L226.76 10.79L226.76 13.07Q227.64 11.73 228.92 11.01Q230.20 10.29 231.67 10.29L231.67 10.29Q232.51 10.29 233.41 10.54Q234.31 10.79 234.91 11.18L234.91 11.18L232.93 15.19Q232.40 14.83 231.69 14.62Q230.99 14.42 230.38 14.42L230.38 14.42Q229.45 14.42 228.62 14.90Q227.78 15.38 227.27 16.14Q226.76 16.91 226.76 17.79L226.76 17.79L226.76 26.66ZM245.29 26.66L240.53 26.66L240.53 10.79L245.29 10.79L245.29 26.66ZM242.92 7.49L242.92 7.49Q242.14 7.49 241.50 7.11Q240.86 6.73 240.47 6.08Q240.08 5.43 240.08 4.65L240.08 4.65Q240.08 3.88 240.47 3.24Q240.86 2.60 241.50 2.22Q242.14 1.84 242.92 1.84L242.92 1.84Q243.69 1.84 244.33 2.22Q244.96 2.60 245.34 3.24Q245.72 3.88 245.72 4.65L245.72 4.65Q245.72 5.43 245.34 6.08Q244.96 6.73 244.33 7.11Q243.69 7.49 242.92 7.49ZM258.66 26.66L253.90 26.66L253.90 10.79L258.66 10.79L258.66 12.55Q259.57 11.53 260.94 10.91Q262.32 10.29 263.97 10.29L263.97 10.29Q265.80 10.29 267.19 11.09Q268.58 11.89 269.37 13.31Q270.16 14.72 270.16 16.62L270.16 16.62L270.16 26.66L265.40 26.66L265.40 17.62Q265.40 15.92 264.51 14.97Q263.62 14.01 262.07 14.01L262.07 14.01Q261.01 14.01 260.25 14.44Q259.48 14.86 259.07 15.60Q258.66 16.34 258.66 17.27L258.66 17.27L258.66 26.66ZM286.09 35.19L286.09 35.19Q282.88 35.19 280.69 34.01Q278.51 32.84 277.51 30.57L277.51 30.57L281.39 28.68Q282.04 29.78 283.31 30.43Q284.58 31.08 286.07 31.08L286.07 31.08Q287.42 31.08 288.44 30.54Q289.46 30.01 290.04 29.04Q290.61 28.07 290.61 26.80L290.61 26.80L290.61 24.57Q289.56 25.79 288.12 26.47Q286.67 27.16 285.02 27.16L285.02 27.16Q282.86 27.16 281.09 26.08Q279.31 25.00 278.26 23.09Q277.20 21.19 277.20 18.72L277.20 18.72Q277.20 16.31 278.23 14.41Q279.27 12.51 281.06 11.40Q282.85 10.29 285.14 10.29L285.14 10.29Q286.81 10.29 288.24 10.94Q289.67 11.58 290.61 12.73L290.61 12.73L290.61 10.79L295.37 10.79L295.37 27.09Q295.37 29.43 294.35 31.26Q293.34 33.09 291.28 34.14Q289.22 35.19 286.09 35.19ZM286.44 23.11L286.44 23.11Q287.70 23.11 288.67 22.54Q289.64 21.98 290.18 20.99Q290.72 20.01 290.72 18.75L290.72 18.75Q290.72 17.47 290.17 16.48Q289.62 15.48 288.66 14.91Q287.70 14.34 286.47 14.34L286.47 14.34Q285.25 14.34 284.29 14.91Q283.33 15.48 282.77 16.48Q282.21 17.48 282.21 18.75L282.21 18.75Q282.21 20.01 282.75 20.99Q283.30 21.98 284.26 22.54Q285.22 23.11 286.44 23.11Z" transform="translate(0, 0)"></path></g></svg></svg>